<svg xmlns="http://www.w3.org/2000/svg" width="199.367" height="21.041" viewBox="0 0 199.367 21.041"><defs><style>.a{fill:#fff;}</style></defs><path class="a" d="M29.612,162.457H27.869V149.014H23.121v-1.549H34.359v1.549H29.612Z" transform="translate(-23.121 -146.501)"/><path class="a" d="M49.627,154.94a8.251,8.251,0,0,1-1.82,5.661,6.4,6.4,0,0,1-5.06,2.061,6.479,6.479,0,0,1-5.112-2.026,8.32,8.32,0,0,1-1.8-5.716,8.212,8.212,0,0,1,1.805-5.675,6.523,6.523,0,0,1,5.127-2.016,6.388,6.388,0,0,1,5.045,2.051A8.249,8.249,0,0,1,49.627,154.94Zm-11.945,0a7.113,7.113,0,0,0,1.3,4.62,4.6,4.6,0,0,0,3.768,1.574,4.557,4.557,0,0,0,3.763-1.569,8.992,8.992,0,0,0,.005-9.213,4.538,4.538,0,0,0-3.747-1.564,4.626,4.626,0,0,0-3.789,1.574A7.042,7.042,0,0,0,37.682,154.94Z" transform="translate(-23.121 -146.501)"/><path class="a" d="M57.584,162.457H55.841V149.014H51.094v-1.549H62.332v1.549H57.584Z" transform="translate(-23.121 -146.501)"/><path class="a" d="M73.15,147.465h1.876l-5.4,14.992H67.9l-5.373-14.992h1.846l3.445,9.7a27.181,27.181,0,0,1,.943,3.25,27.249,27.249,0,0,1,.964-3.312Z" transform="translate(-23.121 -146.501)"/><path class="a" d="M85.547,158.468a3.677,3.677,0,0,1-1.436,3.086,6.226,6.226,0,0,1-3.9,1.108,9.763,9.763,0,0,1-4.1-.687v-1.682a10.764,10.764,0,0,0,2.01.615,10.531,10.531,0,0,0,2.153.226,4.337,4.337,0,0,0,2.625-.662,2.168,2.168,0,0,0,.882-1.84,2.368,2.368,0,0,0-.312-1.277,2.918,2.918,0,0,0-1.046-.917,14.534,14.534,0,0,0-2.231-.954,7.117,7.117,0,0,1-2.989-1.774,3.918,3.918,0,0,1-.9-2.676,3.33,3.33,0,0,1,1.3-2.759,5.418,5.418,0,0,1,3.446-1.025,10.145,10.145,0,0,1,4.111.82l-.543,1.518a9.28,9.28,0,0,0-3.609-.779,3.5,3.5,0,0,0-2.164.594,1.962,1.962,0,0,0-.779,1.651,2.523,2.523,0,0,0,.287,1.277,2.7,2.7,0,0,0,.969.913,12.084,12.084,0,0,0,2.087.917,8.267,8.267,0,0,1,3.245,1.805A3.549,3.549,0,0,1,85.547,158.468Z" transform="translate(-23.121 -146.501)"/><path class="a" d="M97.072,146.5h1.446v21.041H97.072Z" transform="translate(-23.121 -146.501)"/><path class="a" d="M111.089,162.457V147.465h1.744v13.412h6.613v1.58Z" transform="translate(-23.121 -146.501)"/><path class="a" d="M130.346,162.457h-8.357V147.465h8.357v1.549h-6.614v4.829h6.214v1.538h-6.214V160.9h6.614Z" transform="translate(-23.121 -146.501)"/><path class="a" d="M140.262,154.6h5.1v7.291a16.4,16.4,0,0,1-2.42.574,18.41,18.41,0,0,1-2.851.2,6.907,6.907,0,0,1-5.3-2.026,7.976,7.976,0,0,1-1.9-5.675,8.577,8.577,0,0,1,.938-4.1,6.352,6.352,0,0,1,2.7-2.687,8.764,8.764,0,0,1,4.133-.928,11.29,11.29,0,0,1,4.47.882l-.676,1.538a9.994,9.994,0,0,0-3.907-.861,5.594,5.594,0,0,0-4.276,1.63,6.329,6.329,0,0,0-1.538,4.522,6.467,6.467,0,0,0,1.482,4.6,5.7,5.7,0,0,0,4.352,1.569,12.95,12.95,0,0,0,3.046-.359v-4.614h-3.353Z" transform="translate(-23.121 -146.501)"/><path class="a" d="M158.38,162.457l-1.866-4.769h-6.009l-1.845,4.769H146.9l5.927-15.053h1.466l5.9,15.053Zm-2.409-6.337-1.743-4.645q-.339-.882-.7-2.164a19.269,19.269,0,0,1-.646,2.164l-1.763,4.645Z" transform="translate(-23.121 -146.501)"/><path class="a" d="M162.246,162.457V147.465h1.743v13.412H170.6v1.58Z" transform="translate(-23.121 -146.501)"/><path class="a" d="M185.112,154.817a7.574,7.574,0,0,1-2.014,5.676,7.976,7.976,0,0,1-5.8,1.964h-4.153V147.465h4.594a6.729,6.729,0,0,1,7.372,7.352Zm-1.845.062a6.038,6.038,0,0,0-1.472-4.42,5.9,5.9,0,0,0-4.373-1.486h-2.533v11.976h2.123a6.458,6.458,0,0,0,4.686-1.532A6.071,6.071,0,0,0,183.267,154.879Z" transform="translate(-23.121 -146.501)"/><path class="a" d="M196.812,162.457h-8.357V147.465h8.357v1.549H190.2v4.829h6.214v1.538H190.2V160.9h6.614Z" transform="translate(-23.121 -146.501)"/><path class="a" d="M208.594,158.468a3.677,3.677,0,0,1-1.436,3.086,6.226,6.226,0,0,1-3.9,1.108,9.76,9.76,0,0,1-4.1-.687v-1.682a10.741,10.741,0,0,0,2.01.615,10.531,10.531,0,0,0,2.153.226,4.337,4.337,0,0,0,2.625-.662,2.168,2.168,0,0,0,.882-1.84,2.369,2.369,0,0,0-.312-1.277,2.918,2.918,0,0,0-1.046-.917,14.578,14.578,0,0,0-2.231-.954,7.117,7.117,0,0,1-2.989-1.774,3.918,3.918,0,0,1-.9-2.676,3.33,3.33,0,0,1,1.3-2.759,5.416,5.416,0,0,1,3.446-1.025,10.148,10.148,0,0,1,4.111.82l-.543,1.518a9.284,9.284,0,0,0-3.609-.779,3.5,3.5,0,0,0-2.164.594,1.959,1.959,0,0,0-.779,1.651,2.523,2.523,0,0,0,.287,1.277,2.7,2.7,0,0,0,.969.913,12.1,12.1,0,0,0,2.086.917,8.264,8.264,0,0,1,3.246,1.805A3.549,3.549,0,0,1,208.594,158.468Z" transform="translate(-23.121 -146.501)"/><path class="a" d="M222.488,162.457h-2.051l-5.465-7.27-1.569,1.394v5.876H211.66V147.465H213.4V154.9l6.8-7.434h2.061l-6.029,6.512Z" transform="translate(-23.121 -146.501)"/></svg>