<svg xmlns="http://www.w3.org/2000/svg" xmlns:xlink="http://www.w3.org/1999/xlink" width="97.65" height="33.233" viewBox="0 0 97.65 33.233"><defs><style>.a{fill:#fff;}.b,.d{opacity:0.5;}.b{fill:url(#a);}.c{opacity:0.75;fill:url(#b);}.d{fill:url(#c);}.e{opacity:0.95;fill:url(#d);}.f,.g{fill:none;opacity:0.9;}.g{stroke:#fff;}.h{fill:rgba(255,255,255,0.9);}</style><linearGradient id="a" x1="1.039" y1="-1.3" x2="2.039" y2="-1.3" gradientUnits="objectBoundingBox"><stop offset="0" stop-color="#a6a6a6"/><stop offset="1" stop-color="#b3b3b3"/></linearGradient><linearGradient id="b" x1="1.298" y1="0.354" x2="2.297" y2="0.354" gradientUnits="objectBoundingBox"><stop offset="0" stop-color="#999"/><stop offset="1" stop-color="#666"/></linearGradient><linearGradient id="c" x1="0.507" y1="0.104" x2="1.507" y2="0.104" gradientUnits="objectBoundingBox"><stop offset="0" stop-color="#e6e6e6"/><stop offset="1" stop-color="#b3b3b3"/></linearGradient><linearGradient id="d" x1="1.039" y1="-1.663" x2="2.039" y2="-1.663" gradientUnits="objectBoundingBox"><stop offset="0" stop-color="#999"/><stop offset="1"/></linearGradient></defs><g transform="translate(-6.32 0.299)"><g transform="translate(38.902 9.527)"><g transform="translate(35.564 10.12)"><path class="a" d="M176.112,51.138l-.26-.613h-1.06l-.26.613h-.471L175.3,48.42h.069l1.235,2.718Zm-.788-1.873-.378.9h.76Z" transform="translate(-174.06 -48.396)"/><path class="a" d="M183.566,51.182c-.292,0-.5-.02-.772-.045l0-2.633a6.464,6.464,0,0,1,.743-.045c1.06,0,1.584.609,1.584,1.333A1.367,1.367,0,0,1,183.566,51.182Zm.024-2.32a2.824,2.824,0,0,0-.345.02l0,1.869a2.5,2.5,0,0,0,.386.02.9.9,0,0,0,1-.979C184.63,49.236,184.273,48.862,183.59,48.862Z" transform="translate(-179.243 -48.419)"/><path class="a" d="M191.63,51.218h-.061L190.33,48.5h.524l.756,1.784.748-1.784h.508Z" transform="translate(-183.72 -48.443)"/><path class="a" d="M199.915,51.157a1.325,1.325,0,0,1-1.345-1.381,1.344,1.344,0,0,1,1.369-1.385,1.329,1.329,0,0,1,1.345,1.385A1.345,1.345,0,0,1,199.915,51.157Zm.016-2.36a.984.984,0,1,0,.865.975A.9.9,0,0,0,199.931,48.8Z" transform="translate(-188.612 -48.378)"/><path class="a" d="M210.191,49.678v1.17a1.747,1.747,0,0,1-1,.293,1.386,1.386,0,1,1,0-2.771,1.706,1.706,0,0,1,.951.276l-.207.366a1.322,1.322,0,0,0-.719-.219.911.911,0,0,0-.955.967.94.94,0,0,0,.951.975,1,1,0,0,0,.54-.13v-.528h-.626v-.394Z" transform="translate(-194.075 -48.366)"/><path class="a" d="M218.152,51.1l-.26-.613h-1.06l-.26.613H216.1l1.235-2.722h.065l1.235,2.718Zm-.788-1.873-.382.894h.76Z" transform="translate(-199.021 -48.372)"/><path class="a" d="M225.772,51.152a6.69,6.69,0,0,1-.772-.045V48.475a6.408,6.408,0,0,1,.743-.045c1.06,0,1.584.609,1.584,1.333A1.37,1.37,0,0,1,225.772,51.152Zm.028-2.32a2.066,2.066,0,0,0-.341.024l0,1.869a2.442,2.442,0,0,0,.382.02.9.9,0,0,0,1-.979A.915.915,0,0,0,225.8,48.832Z" transform="translate(-204.305 -48.402)"/><path class="a" d="M234.385,51.131a1.325,1.325,0,0,1-1.345-1.381,1.346,1.346,0,0,1,1.365-1.389,1.326,1.326,0,0,1,1.345,1.385A1.343,1.343,0,0,1,234.385,51.131Zm.012-2.36a.985.985,0,1,0,.865.979A.894.894,0,0,0,234.4,48.77Z" transform="translate(-209.079 -48.36)"/><path class="a" d="M242.861,51.131a1.573,1.573,0,0,1-.841-.264l.158-.41a1.211,1.211,0,0,0,.7.248c.28,0,.406-.167.406-.349s-.081-.3-.5-.483c-.471-.2-.638-.439-.638-.76a.8.8,0,0,1,.882-.752,1.249,1.249,0,0,1,.674.2l-.146.4a1.045,1.045,0,0,0-.54-.191c-.28,0-.41.154-.41.333s.13.284.463.431c.532.232.683.447.687.8A.824.824,0,0,1,242.861,51.131Z" transform="translate(-214.41 -48.36)"/></g><path class="a" d="M90.68,32.156h-.223L86.52,23.84h2.194L90.595,28.3l1.881-4.457h2.149Z" transform="translate(-86.52 -23.682)"/><path class="a" d="M114.23,32.1V23.85h5.22v1.755h-3.307V27.08h3.014v1.666h-3.014v1.609h3.307V32.1l-5.22,0Z" transform="translate(-102.972 -23.687)"/><path class="a" d="M138.03,32.1V23.85h1.914V32.1Z" transform="translate(-117.103 -23.687)"/><path class="a" d="M157.215,32.008l-1.406-2.689a2.97,2.97,0,0,1-.329.012c-.28,0-.439-.012-.707-.02v2.7H152.86V23.834a21.362,21.362,0,0,1,2.429-.134c2.564,0,3.579,1.227,3.579,2.734a2.764,2.764,0,0,1-1.418,2.385L159.385,32h-2.169v0Zm-1.7-6.6a4.027,4.027,0,0,0-.743.057v2.275a5.317,5.317,0,0,0,.605.033c.914,0,1.5-.439,1.5-1.272C156.878,25.817,156.338,25.41,155.517,25.41Z" transform="translate(-125.908 -23.598)"/><path class="a" d="M180.093,32l-.622-1.5h-2.844L176.01,32h-1.95l3.884-8.316h.26L182.084,32Zm-2.039-4.944-.821,1.979h1.633Z" transform="translate(-138.496 -23.587)"/><path class="a" d="M207.51,32.014l-4.977-4.469v4.31H200.62V23.495l.26-.045,4.9,4.432V23.608H207.7v8.373Z" transform="translate(-154.265 -23.45)"/><path class="a" d="M230.065,32.029a4.034,4.034,0,0,1-4.185-4.254,4.1,4.1,0,0,1,4.266-4.266,4.042,4.042,0,0,1,4.185,4.266A4.1,4.1,0,0,1,230.065,32.029Zm.037-6.809a2.282,2.282,0,0,0-2.182,2.555,2.209,2.209,0,1,0,4.363,0A2.284,2.284,0,0,0,230.1,25.22Z" transform="translate(-169.263 -23.486)"/></g><g transform="translate(6.32)"><path class="b" d="M28.906,48.727,25.66,32.48l14.7,1Z" transform="translate(-17.803 -19.285)"/><path class="c" d="M31.14,15.686,42.909,0l-2.6,12.017Z" transform="translate(-21.057)"/><path class="d" d="M6.32,0,30.058,22.206,36.453,0h-8.28l-2.6,12.017L13.141,0Z" transform="translate(-6.32)"/><path class="e" d="M40.359,33.475,37.832,43.656,25.66,32.48Z" transform="translate(-17.803 -19.285)"/><path class="f" d="M26.372,15.686,23.11,0,35.542,12.017Z" transform="translate(-16.289)"/><path class="g" d="M20.68,32.5,44.979,0,38.584,22.206l-3.709,2.165L37.4,14.191,25.949,29.442Z" transform="translate(-14.846)"/><path class="h" d="M6.32,0l5.834,32.5L36.453,0h-8.28L16.4,15.686,13.141,0Z" transform="translate(-6.32)"/></g></g></svg>